<?xml version="1.0" encoding="UTF-8"?>
<svg id="Layer_1" data-name="Layer 1" xmlns="http://www.w3.org/2000/svg" viewBox="0 0 841.89 595.28">
  <defs>
    <style>
      .cls-1 {
        fill: #f04f23;
      }

      .cls-2 {
        fill: #9fc26d;
      }
    </style>
  </defs>
  <g>
    <path class="cls-2" d="m188.12,519.98v-31.05h3.23v31.05h-3.23Zm2.38-28.16v-2.89h14.55v2.89h-14.55Zm0,13.82v-2.93l13.74-.04v2.94l-13.74.04Z"/>
    <path class="cls-2" d="m218.66,520.62c-2.7,0-4.75-.87-6.17-2.62-1.42-1.74-2.13-4.17-2.13-7.29v-13.27h3.15v13.91c0,1.96.52,3.51,1.55,4.66,1.03,1.15,2.47,1.72,4.32,1.72s3.47-.61,4.62-1.83c1.15-1.22,1.72-2.85,1.72-4.89v-13.57h3.19v22.54h-2.55v-9.4h.51c0,2.1-.3,3.89-.89,5.38-.59,1.49-1.49,2.64-2.68,3.45-1.19.81-2.69,1.21-4.51,1.21h-.13Z"/>
    <path class="cls-2" d="m233.76,499.9v-2.42h15.23v2.42h-15.23Zm11.65,20.33c-1.56,0-2.91-.23-4.04-.68-1.13-.45-2.01-1.23-2.64-2.32s-.94-2.56-.94-4.4v-22.46h3.06v22.93c0,1.3.35,2.3,1.06,3,.71.69,1.71,1.04,3.02,1.04h4.04v2.89h-3.57Z"/>
    <path class="cls-2" d="m262.08,520.62c-2.89,0-5.12-.63-6.68-1.89s-2.35-2.96-2.38-5.08h2.98c.06,1.08.55,2.06,1.47,2.94.92.88,2.46,1.32,4.62,1.32,2.01,0,3.52-.42,4.53-1.25,1.01-.84,1.51-1.85,1.51-3.04,0-1.11-.42-1.96-1.25-2.57s-2.05-1-3.64-1.17l-2.55-.25c-2.04-.23-3.69-.86-4.96-1.89-1.26-1.04-1.89-2.46-1.89-4.28,0-1.33.34-2.49,1.02-3.49.68-.99,1.64-1.77,2.87-2.32s2.69-.83,4.36-.83c2.41,0,4.37.57,5.89,1.7,1.52,1.13,2.29,2.75,2.32,4.85h-2.98c-.03-1.08-.48-1.98-1.36-2.72s-2.17-1.11-3.87-1.11-3.07.38-3.93,1.15c-.87.77-1.3,1.7-1.3,2.81,0,.94.33,1.71.98,2.32.65.61,1.67.99,3.06,1.13l2.55.25c2.27.25,4.12.91,5.55,1.96s2.15,2.55,2.15,4.51c0,1.33-.38,2.53-1.13,3.59-.75,1.06-1.81,1.89-3.17,2.49-1.36.59-2.95.89-4.76.89Z"/>
    <path class="cls-2" d="m283.56,520.58c-1.59,0-2.99-.28-4.21-.85-1.22-.57-2.16-1.39-2.83-2.47-.67-1.08-1-2.38-1-3.91s.35-2.78,1.04-3.83,1.7-1.85,3.02-2.4c1.32-.55,2.91-.83,4.79-.83h6.59v2.42h-6.81c-1.79,0-3.16.43-4.1,1.3-.95.87-1.42,1.99-1.42,3.38s.5,2.55,1.49,3.38c.99.84,2.34,1.25,4.04,1.25,1.05,0,2.06-.19,3.02-.57.96-.38,1.77-1.04,2.42-1.96.65-.92,1.01-2.19,1.06-3.81l.94,1.32c-.11,1.67-.51,3.07-1.19,4.19-.68,1.12-1.6,1.96-2.77,2.53-1.16.57-2.52.85-4.08.85Zm7.61-.6v-6.76h-.51v-8c0-1.67-.44-2.96-1.32-3.85s-2.24-1.34-4.08-1.34c-.85,0-1.71.01-2.57.04-.87.03-1.69.06-2.47.11-.78.04-1.47.09-2.06.15v-2.81c.62-.06,1.26-.11,1.91-.17.65-.06,1.32-.09,2.02-.11.7-.01,1.37-.02,2.02-.02,2.3,0,4.15.28,5.55.85,1.4.57,2.43,1.45,3.08,2.66.65,1.21.98,2.8.98,4.78v14.46h-2.55Z"/>
    <path class="cls-2" d="m298.62,491.52v-2.59h6.46v2.59h-6.46Zm3.28,28.46v-31.05h3.19v31.05h-3.19Z"/>
    <path class="cls-2" d="m334.86,520.7c-1.99,0-3.72-.44-5.21-1.32-1.49-.88-2.65-2.11-3.49-3.7-.84-1.59-1.28-3.42-1.34-5.49h.98v9.78h-2.55v-31.05h3.19v15.53l-1.23,2.85c.06-2.27.52-4.19,1.38-5.76.87-1.57,2.03-2.77,3.49-3.59,1.46-.82,3.13-1.23,5-1.23,1.64,0,3.13.31,4.46.94,1.33.62,2.47,1.47,3.42,2.55.95,1.08,1.67,2.32,2.17,3.72s.74,2.89.74,4.45v.59c0,1.53-.25,3-.77,4.4-.51,1.4-1.24,2.66-2.19,3.76-.95,1.11-2.11,1.98-3.47,2.62-1.36.64-2.89.96-4.59.96Zm-.34-2.81c1.7,0,3.16-.41,4.38-1.23,1.22-.82,2.15-1.93,2.81-3.32.65-1.39.98-2.95.98-4.68s-.33-3.32-1-4.7-1.62-2.46-2.85-3.25-2.67-1.19-4.32-1.19c-1.53,0-2.92.34-4.17,1.02-1.25.68-2.23,1.64-2.96,2.87-.72,1.23-1.08,2.69-1.08,4.36v2.08c0,1.59.36,2.98,1.08,4.19.72,1.21,1.71,2.15,2.96,2.83,1.25.68,2.64,1.02,4.17,1.02Z"/>
    <path class="cls-2" d="m362.42,520.7c-1.93,0-3.62-.33-5.08-1-1.46-.67-2.69-1.56-3.7-2.68-1.01-1.12-1.77-2.38-2.3-3.76-.53-1.39-.79-2.81-.79-4.25v-.6c0-1.45.27-2.87.81-4.27s1.32-2.66,2.34-3.76c1.02-1.11,2.26-1.99,3.72-2.66,1.46-.67,3.13-1,5-1s3.58.33,5.04,1c1.46.67,2.7,1.55,3.72,2.66,1.02,1.11,1.79,2.36,2.32,3.76.53,1.4.79,2.83.79,4.27v.6c0,1.45-.25,2.86-.77,4.25-.51,1.39-1.27,2.64-2.28,3.76s-2.25,2.01-3.72,2.68c-1.48.67-3.18,1-5.11,1Zm0-2.85c1.87,0,3.45-.42,4.74-1.25,1.29-.84,2.28-1.94,2.96-3.32.68-1.38,1.02-2.9,1.02-4.57s-.35-3.24-1.04-4.62c-.7-1.38-1.69-2.47-3-3.27-1.3-.81-2.87-1.21-4.68-1.21s-3.33.4-4.63,1.21c-1.3.81-2.3,1.9-3,3.27-.69,1.38-1.04,2.91-1.04,4.62s.34,3.2,1.02,4.57c.68,1.38,1.67,2.48,2.96,3.32,1.29.84,2.86,1.25,4.7,1.25Z"/>
    <path class="cls-2" d="m390.87,520.7c-1.93,0-3.62-.33-5.08-1-1.46-.67-2.7-1.56-3.7-2.68-1.01-1.12-1.77-2.38-2.3-3.76-.53-1.39-.79-2.81-.79-4.25v-.6c0-1.45.27-2.87.81-4.27s1.32-2.66,2.34-3.76c1.02-1.11,2.26-1.99,3.72-2.66,1.46-.67,3.13-1,5-1s3.58.33,5.04,1c1.46.67,2.7,1.55,3.72,2.66,1.02,1.11,1.79,2.36,2.32,3.76.52,1.4.79,2.83.79,4.27v.6c0,1.45-.26,2.86-.77,4.25-.51,1.39-1.27,2.64-2.28,3.76-1.01,1.12-2.25,2.01-3.72,2.68-1.48.67-3.18,1-5.1,1Zm0-2.85c1.87,0,3.45-.42,4.74-1.25,1.29-.84,2.28-1.94,2.96-3.32.68-1.38,1.02-2.9,1.02-4.57s-.35-3.24-1.04-4.62c-.7-1.38-1.7-2.47-3-3.27-1.3-.81-2.86-1.21-4.68-1.21s-3.33.4-4.64,1.21c-1.3.81-2.3,1.9-3,3.27-.7,1.38-1.04,2.91-1.04,4.62s.34,3.2,1.02,4.57c.68,1.38,1.67,2.48,2.96,3.32,1.29.84,2.86,1.25,4.7,1.25Z"/>
    <path class="cls-2" d="m409.25,519.98v-31.05h3.19v31.05h-3.19Zm15.31,0l-9.06-10.55h-3.66l10.68-11.95h3.4l-9.57,10.68.21-1.74,11.74,13.57h-3.74Z"/>
    <path class="cls-2" d="m430.17,500.03v-2.55h6.76v2.55h-6.76Zm4.3-6.72c-.77,0-1.34-.21-1.72-.62s-.57-.93-.57-1.55.19-1.14.57-1.55c.38-.41.96-.62,1.72-.62s1.33.21,1.7.62c.37.41.55.93.55,1.55s-.19,1.14-.55,1.55c-.37.41-.94.62-1.7.62Zm-.68,26.67v-22.5h3.15v22.5h-3.15Z"/>
    <path class="cls-2" d="m445.32,519.98v-22.5h2.55v9.44h-.51c0-2.1.31-3.9.94-5.4.62-1.5,1.56-2.67,2.81-3.49s2.82-1.23,4.72-1.23h.13c2.83,0,4.95.89,6.34,2.66,1.39,1.77,2.08,4.26,2.08,7.46v13.06h-3.15v-13.74c0-1.96-.54-3.53-1.62-4.72-1.08-1.19-2.58-1.79-4.51-1.79s-3.58.62-4.79,1.85c-1.21,1.23-1.81,2.86-1.81,4.87v13.53h-3.19Z"/>
    <path class="cls-2" d="m480.92,528.78c-1.05,0-2.11-.05-3.17-.15-1.06-.1-2.08-.22-3.04-.36v-2.72c1.02.14,2.09.26,3.21.36,1.12.1,2.18.15,3.17.15,2.16,0,3.87-.28,5.15-.85,1.28-.57,2.19-1.47,2.74-2.7.55-1.23.83-2.86.83-4.87v-4.51l1.19-3.15c-.06,2.16-.51,4-1.36,5.55-.85,1.54-2,2.73-3.45,3.55-1.45.82-3.09,1.23-4.93,1.23-1.62,0-3.08-.31-4.4-.94-1.32-.62-2.45-1.48-3.38-2.57-.94-1.09-1.66-2.33-2.17-3.72-.51-1.39-.77-2.85-.77-4.38v-.6c0-1.5.25-2.94.77-4.32.51-1.38,1.23-2.59,2.17-3.66s2.08-1.9,3.42-2.51c1.35-.61,2.84-.91,4.49-.91,1.98,0,3.71.44,5.19,1.32,1.47.88,2.63,2.1,3.47,3.66.84,1.56,1.28,3.39,1.34,5.49l-1.02-.55v-9.14h2.51v20.03c0,2.69-.4,4.86-1.19,6.51-.79,1.64-2.06,2.85-3.81,3.62-1.74.77-4.06,1.15-6.96,1.15Zm.89-11.4c1.53,0,2.9-.33,4.1-1s2.16-1.61,2.87-2.83c.71-1.22,1.06-2.64,1.06-4.25v-2.08c0-1.56-.36-2.92-1.08-4.08-.72-1.16-1.68-2.07-2.87-2.72s-2.55-.98-4.08-.98c-1.65,0-3.08.4-4.3,1.19-1.22.79-2.16,1.86-2.81,3.21-.65,1.35-.98,2.87-.98,4.57s.33,3.28,1,4.64c.67,1.36,1.61,2.42,2.83,3.19,1.22.77,2.64,1.15,4.25,1.15Z"/>
    <path class="cls-2" d="m517.88,520.62c-2.89,0-5.12-.63-6.68-1.89s-2.35-2.96-2.38-5.08h2.98c.06,1.08.55,2.06,1.47,2.94.92.88,2.46,1.32,4.62,1.32,2.01,0,3.52-.42,4.53-1.25,1.01-.84,1.51-1.85,1.51-3.04,0-1.11-.42-1.96-1.25-2.57s-2.05-1-3.64-1.17l-2.55-.25c-2.04-.23-3.69-.86-4.96-1.89-1.26-1.04-1.89-2.46-1.89-4.28,0-1.33.34-2.49,1.02-3.49.68-.99,1.64-1.77,2.87-2.32s2.69-.83,4.36-.83c2.41,0,4.37.57,5.89,1.7,1.52,1.13,2.29,2.75,2.32,4.85h-2.98c-.03-1.08-.48-1.98-1.36-2.72s-2.17-1.11-3.87-1.11-3.07.38-3.93,1.15c-.87.77-1.3,1.7-1.3,2.81,0,.94.33,1.71.98,2.32.65.61,1.67.99,3.06,1.13l2.55.25c2.27.25,4.12.91,5.55,1.96s2.15,2.55,2.15,4.51c0,1.33-.38,2.53-1.13,3.59-.75,1.06-1.81,1.89-3.17,2.49-1.36.59-2.95.89-4.76.89Z"/>
    <path class="cls-2" d="m538.08,519.43l-8.17-21.95h3.28l7.87,21.95h-2.98Zm-6.93,9.31v-2.85h2.89c.99,0,1.84-.12,2.55-.36.71-.24,1.3-.66,1.79-1.25.48-.6.89-1.42,1.23-2.47l7.57-24.33h3.1l-7.91,25.22c-.45,1.45-1.08,2.62-1.87,3.51-.79.89-1.74,1.54-2.85,1.93-1.11.4-2.37.6-3.79.6h-2.72Zm7.32-9.31v-2.68h4.04v2.68h-4.04Z"/>
    <path class="cls-2" d="m562.84,520.62c-2.89,0-5.12-.63-6.68-1.89-1.56-1.26-2.35-2.96-2.38-5.08h2.98c.06,1.08.54,2.06,1.47,2.94s2.46,1.32,4.62,1.32c2.01,0,3.52-.42,4.53-1.25,1.01-.84,1.51-1.85,1.51-3.04,0-1.11-.42-1.96-1.25-2.57-.84-.61-2.05-1-3.64-1.17l-2.55-.25c-2.04-.23-3.69-.86-4.96-1.89s-1.89-2.46-1.89-4.28c0-1.33.34-2.49,1.02-3.49.68-.99,1.64-1.77,2.87-2.32,1.23-.55,2.69-.83,4.36-.83,2.41,0,4.37.57,5.89,1.7,1.52,1.13,2.29,2.75,2.32,4.85h-2.98c-.03-1.08-.48-1.98-1.36-2.72-.88-.74-2.17-1.11-3.87-1.11s-3.07.38-3.93,1.15c-.87.77-1.3,1.7-1.3,2.81,0,.94.33,1.71.98,2.32.65.61,1.67.99,3.06,1.13l2.55.25c2.27.25,4.12.91,5.55,1.96,1.43,1.05,2.15,2.55,2.15,4.51,0,1.33-.38,2.53-1.13,3.59-.75,1.06-1.81,1.89-3.17,2.49-1.36.59-2.95.89-4.76.89Z"/>
    <path class="cls-2" d="m574.75,499.9v-2.42h15.23v2.42h-15.23Zm11.65,20.33c-1.56,0-2.91-.23-4.04-.68-1.13-.45-2.01-1.23-2.64-2.32-.62-1.09-.94-2.56-.94-4.4v-22.46h3.06v22.93c0,1.3.35,2.3,1.06,3,.71.69,1.71,1.04,3.02,1.04h4.04v2.89h-3.57Z"/>
    <path class="cls-2" d="m605.33,520.7c-1.93,0-3.6-.33-5.02-1-1.42-.67-2.58-1.56-3.49-2.68-.91-1.12-1.58-2.38-2.02-3.76-.44-1.39-.66-2.82-.66-4.3v-.59c0-1.45.22-2.86.66-4.25.44-1.39,1.11-2.64,2.02-3.74.91-1.11,2.05-1.99,3.42-2.66,1.38-.67,2.98-1,4.83-1,2.35,0,4.32.52,5.89,1.57,1.57,1.05,2.76,2.39,3.55,4.02.79,1.63,1.19,3.38,1.19,5.25v1.66h-20.12v-2.47h17.91l-.81,1.23c0-1.67-.29-3.14-.87-4.4s-1.43-2.25-2.55-2.98c-1.12-.72-2.52-1.08-4.19-1.08-1.76,0-3.22.41-4.38,1.23-1.16.82-2.04,1.91-2.62,3.28s-.87,2.91-.87,4.64.29,3.25.87,4.66c.58,1.4,1.47,2.52,2.68,3.34s2.73,1.23,4.57,1.23c1.96,0,3.54-.45,4.76-1.34s1.97-1.95,2.25-3.17h2.98c-.28,1.5-.88,2.8-1.79,3.89-.91,1.09-2.06,1.94-3.45,2.53-1.39.6-2.98.89-4.76.89Z"/>
    <path class="cls-2" d="m621.83,519.98v-22.54h2.55v9.49h-.51c0-2.07.29-3.86.87-5.36s1.45-2.67,2.62-3.51c1.16-.84,2.64-1.25,4.42-1.25h.13c1.79,0,3.26.41,4.42,1.23,1.16.82,2.03,1.99,2.59,3.49.57,1.5.85,3.3.85,5.4h-1.02c0-2.07.29-3.86.87-5.36.58-1.5,1.46-2.67,2.64-3.51s2.66-1.25,4.45-1.25h.13c1.79,0,3.27.41,4.45,1.23,1.18.82,2.05,1.99,2.64,3.49.58,1.5.87,3.3.87,5.4v13.06h-3.19v-13.78c0-1.98-.48-3.56-1.45-4.72-.96-1.16-2.35-1.74-4.17-1.74s-3.35.6-4.45,1.81c-1.09,1.21-1.64,2.83-1.64,4.87v13.57h-3.19v-13.78c0-1.98-.48-3.56-1.45-4.72-.96-1.16-2.35-1.74-4.17-1.74s-3.35.6-4.45,1.81c-1.09,1.21-1.64,2.83-1.64,4.87v13.57h-3.19Z"/>
  </g>
  <g>
    <circle class="cls-1" cx="627.32" cy="279.08" r="61.75"/>
    <g>
      <path class="cls-1" d="m496.62,381.91c-1.65,2.94-3.91,4.62-6.72,4.99-.41.05-.85.08-1.28.08-1.32,0-2.74-.25-4.34-.76-7.5-2.39-12-8.57-11.46-15.74.05-.56.44-1.04.99-1.2.07-.02.14-.03.21-.04.05-.01.11-.02.18-.02.43,0,.83.21,1.09.56,4.79,6.42,9.28,10.69,15.64,10.69.64,0,1.31-.04,1.98-.13.72-.09,1.45-.24,2.19-.43l.16-.03c.06-.01.12-.01.18-.01.42,0,.82.2,1.08.53.33.44.37,1.03.1,1.51Z"/>
      <path class="cls-1" d="m337.33,257.49c-2.11,3.08-4.34,4.68-7.03,5.04-.38.05-.78.07-1.17.07-1.03,0-2.11-.16-3.31-.51-4.49-1.28-7.87-3.61-10.05-6.92-1.81-2.74-2.8-6.17-2.93-10.17-.01-.61.38-1.17.96-1.35.06-.02.14-.04.22-.05.08-.01.14-.02.2-.02.46,0,.89.24,1.14.63,2.34,3.61,4.38,6.14,6.43,7.96,2.94,2.6,6.05,3.86,9.53,3.86.66,0,1.34-.04,2.02-.13.83-.12,1.67-.29,2.5-.51.04-.01.08-.02.12-.03.13-.01.19-.01.25-.01.44,0,.84.21,1.09.56.34.48.35,1.1.03,1.58Z"/>
      <path class="cls-1" d="m370.13,275.72c-2.26,3.05-4.42,4.56-7.01,4.91-.37.04-.75.07-1.13.07-1.08,0-2.24-.18-3.54-.56-7.88-2.27-12.14-7.72-13.03-16.68-.06-.62.3-1.2.88-1.42.12-.04.22-.07.31-.08.05,0,.11,0,.16,0,.45,0,.87.22,1.13.58,5.11,7.2,9.62,11.67,16.3,11.67.68,0,1.39-.05,2.12-.15.76-.1,1.56-.26,2.37-.47.07-.02.13-.03.2-.04h.14c.46,0,.89.22,1.14.6.32.48.31,1.11-.04,1.58Z"/>
      <path class="cls-1" d="m519.53,403.15c-1.76,2.92-4.05,4.58-6.8,4.95-.4.05-.82.08-1.24.08-1.05,0-2.17-.16-3.4-.5-7.98-2.14-12.84-8.43-12.68-16.4.01-.59.39-1.1.95-1.28.07-.02.14-.04.22-.05.08-.01.14-.01.2-.01.44,0,.84.2,1.1.56,5.2,7.14,9.43,11.27,15.65,11.27.64,0,1.3-.05,1.98-.14.8-.1,1.64-.27,2.48-.51.07-.02.13-.03.19-.04.06,0,.12,0,.18,0,.42,0,.83.21,1.09.55.33.44.37,1.05.08,1.53Z"/>
      <path class="cls-1" d="m450.11,339.82c-1.87,2.83-4.07,4.37-6.71,4.72-.39.05-.79.08-1.2.08-1.26,0-2.61-.24-4.12-.72-7.71-2.47-12.37-8.81-11.86-16.17.03-.58.43-1.07.99-1.22.08-.03.14-.03.2-.04.05-.01.11-.01.17-.01.45,0,.87.22,1.11.58,4.03,5.79,8.77,11.14,16.09,11.14.71,0,1.45-.05,2.19-.15.57-.08,1.14-.18,1.71-.3l.13-.02c.06,0,.12,0,.18,0,.45,0,.86.22,1.12.59.31.46.32,1.06,0,1.53Z"/>
      <path class="cls-1" d="m473.49,361.94c-1.58,3.03-3.8,4.76-6.62,5.13-.39.05-.81.08-1.22.08h-.01c-1.15,0-2.39-.2-3.78-.6-8-2.34-12.94-8.84-12.26-16.16.05-.57.45-1.04,1-1.19.09-.03.14-.03.2-.04.04-.01.1-.01.16-.01.44,0,.85.21,1.11.57,4.86,6.76,9.12,10.95,15.32,10.95.63,0,1.28-.05,1.94-.13.8-.11,1.67-.29,2.57-.55.09-.02.12-.03.13-.03.13,0,.19-.02.25-.02.41,0,.79.19,1.06.51.34.42.4,1.01.15,1.49Z"/>
      <path class="cls-1" d="m627.32,441.29l-116.56-184.94,94.9-125.09h-214.96c.8,2.52,1.62,5.01,2.48,7.49.14.39.27.78.42,1.17,2.1,5.8,4.64,10.79,7.74,15.23,7.68,10.93,8.66,23.67,8.39,34.94-3.18.99-6.25,1.68-9.15,2.07-10.14,1.34-19.05-.91-27.22-6.87-7.35-5.36-12.93-12.49-18.32-19.39-3.65-4.66-7.59-8.43-12.05-11.49-7.73-5.31-16.08-7.42-24.85-6.26-1.96.27-3.98.69-6,1.28-.98.29-1.96.6-2.92.92-1.03-6.13-2.35-12.13-3.92-18.03-.8-3.01-1.67-6-2.6-8.96l-2.54-.25c-6.99-.78-14.34-1.17-22.04-1.17-23.51,0-43.89,3.83-61.16,11.47-17.27,7.65-30.65,18.69-40.13,33.14-9.5,14.43-14.23,31.85-14.23,52.23,0,28.61,9.49,51.54,28.46,68.8,18.97,17.28,44.45,27.33,76.45,30.15l19.96,1.7c18.12,1.42,31,4.6,38.64,9.55,7.65,4.96,11.47,11.96,11.47,21.03,0,7.08-2.06,13.16-6.16,18.26-4.11,5.1-10.06,9.07-17.84,11.89-7.79,2.83-17.2,4.25-28.25,4.25-12.74,0-23.21-1.7-31.42-5.09-8.22-3.4-14.38-8.14-18.48-14.23-4.11-6.09-6.16-12.81-6.16-20.17h-76.45c0,20.38,5.03,38.43,15.08,54.15,10.05,15.71,24.92,28.1,44.6,37.16,19.68,9.06,43.96,13.6,72.83,13.6,26.9,0,49.91-4.11,69.02-12.32,5.75-2.47,11.11-5.25,16.07-8.35v12.17h256.9Zm-256.91-137.89c-9.03-5.33-18.24-10.3-28.11-13.76-9.97,7.45-20.09,3.46-22.25-8.72-.3-1.69-.92-2.8-2.33-3.63-2.3-1.36-4.59-2.73-6.83-4.18-1.55-1.01-2.84-1-4.71-.31-5.27,1.91-10.82-.06-14.05-4.01-1.74-2.08-.63-5.99-.38-8.66.08-.88.14-1.79.14-2.73-.02-2.88-.62-6.01-2.89-9.03-.71-.95-1.17-2.36-1.62-3.74l-.08-.27c-.27-.83-.53-1.58-.76-2.26-.55-1.58-1.29-3.74-1.07-4.08.47-.76,4-2.09,6.32-2.97,2.62-1,5.38-1.69,8.19-2.06,6.89-.91,14.32-.04,23.39,2.74,3.08.94,6.07,2.04,8.97,3.25-7.61-4.48-16.28-7.07-22.19-8.45-3.49-.35-6.99-.35-10.48.11-2.91.39-5.82,1.09-8.72,2.19-9.9,3.75-8.69,3.78-5.9,12.26.53,1.62,1.06,3.35,2.06,4.69.14.19.27.39.4.58l-12.34-1.05c-13.32-1.13-22.66-4.53-28.04-10.2-5.38-5.65-8.06-12.45-8.06-20.38,0-5.94,1.49-11.32,4.46-16.14,2.97-4.81,7.36-8.56,13.16-11.26,5.8-2.69,12.95-4.04,21.45-4.04,4.57,0,8.78.42,12.66,1.25-1.99,3.93-3.82,7.93-5.37,12.06-2.92,7.79-2.95,15.65-2.81,24.56,5.19-1.62,10.11-3.21,15.18-3.88,1.16-.15,2.32-.26,3.5-.31,10.24-.41,19.8,1.5,28.92,4.85-6.82-3.5-13.85-5.66-18.46-6.84-3.41-.38-6.93-.51-10.56-.37-1.21.05-2.45.15-3.71.32-4.22.56-8.25,1.7-12.42,2.98.47-7-.05-13.47,2.59-20.49,3.04-8.11,7.34-15.37,11.13-22.49.84-1.45,1.69-2.9,2.55-4.34,9.72-16.2,27.42-19.02,41.71-6.62,2.57,2.24,4.93,4.75,7.25,7.27,3.88,4.2,7.9,8.21,12.36,11.83,2.55,2.07,5.15,3.85,7.79,5.35,7.63,4.31,15.69,6.24,24.17,5.66,4.24-.3,8.59-1.21,13.04-2.77,3.98-1.4,5.73-.18,7.9,2.8,19.72,27.11,39.91,53.91,57.44,82.5,13.16,21.45,28.79,41.22,41.79,62.74,7.02,11.62,13.38,23.53,15.66,37.15.55,3.34.86,6.7.34,10.98-10.15-21.56-26.94-39.77-46.98-52.63-8.15-5.94-17.79-10.01-26.83-14.14-8.83-4.39-17.51-9.51-25.5-15.32-7.99-5.87-15.19-12.81-21.93-20.16-13.47-14.66-24.83-31.85-41.05-43.8,15.87,12.56,26.26,30.12,39.49,45.19,9.84,11.45,21.31,21.77,34.28,29.64,8.35,5.52,17.74,9.82,26.62,14.2,26.16,14.54,47.96,36.69,58.58,64.48,1.11,5.94-1.85,9.45-9.59,15.25-6.16,4.61-13.8,5.25-21.36,4.86-2.85-.14-5.73-.48-8.47-1.19-3.96-1.03-7.13-1.5-10.93,1.62-5.1,4.19-15.62-.61-15.15-7.09.5-6.81-4.08-8.06-8.32-11.3-4.67,4.52-9.38,4.07-14.22.94-3.82-2.47-5.81-5.5-4.21-9.59,2.24-5.71-.63-8.36-5.02-11.22-3.34,2.6-7.1,3.75-11.42,1.66-5.43-2.62-7.86-6.91-4.87-12.01,2.61-4.47,2.18-7.79-.31-11.05-.68-.88-1.5-1.77-2.47-2.67-2.07.13-4.4,1.47-7.19.68-8.81-2.52-12.99-9.53-8.56-17.43,3.47-6.21,1.86-10.55-1.62-15.49-6.23-8.89-14.02-16.03-23.33-21.52,0,0,0,0,0,0Z"/>
    </g>
  </g>
</svg>